<svg xmlns="http://www.w3.org/2000/svg" version="1.1" xmlns:xlink="http://www.w3.org/1999/xlink" width="1000" height="1000"><g clip-path="url(#SvgjsClipPath1451)"><rect width="1000" height="1000" fill="#ffffff"></rect><g transform="matrix(17.639795378373613,0,0,17.639795378373613,-1.1368683772161603e-13,-1.1368683772161603e-13)"><svg xmlns="http://www.w3.org/2000/svg" version="1.1" xmlns:xlink="http://www.w3.org/1999/xlink" width="56.69" height="56.69"><svg id="Layer_1" xmlns="http://www.w3.org/2000/svg" version="1.1" viewBox="0 0 56.69 56.69">
  <!-- Generator: Adobe Illustrator 30.0.0, SVG Export Plug-In . SVG Version: 2.1.1 Build 123)  -->
  <path d="M25.7,39.03c-.77.02-1.11.81-.91,1.43.28.9.51,1.1.54,3.53,0,.73-.06,3.78-4.99,3.78-5.3,0-5.3-3.59-5.3-4.69,0-7.61,1.58-9.63,6.52-12.31l2.25-1.22c2.63-1.21,4.27-2.15,4.41-2.68.24-.96-.79-1.53-3.98-.42-.78.27-1.81.7-2.9,1.12-2.63,1-5.48-.6-5.71-3.4s-.46-5.93-.46-8.38c0-4.14,1.04-6.88,8.04-6.88,5.97,0,6.68,2.2,6.75,4.35,0,0,.07,2.17.49,2.66.62.74,2.28.77,2.14-2.63-.15-3.59,1.7-4.38,4.14-4.38,4.93,0,4.93,3.35,4.93,5.66,0,9.93-.16,11.7-7.4,15.05l-8.16,3.77c-.93.48-2.05.86-2.38,1.51-.3.6.29.86,2.96.79,4.28-.1,6.87-1.02,9.07-1.7,2.78-.87,5.57.55,5.73,3.4.08,1.31.12,2.51.12,3.29,0,4.69-1.46,7.06-7.92,7.06-3.28,0-5.17-1.54-6.16-3.17-.74-1.22-.85-2.68-.69-4.09.08-.66-.13-1.49-1.13-1.47Z"></path>
</svg></svg></g></g><defs><clipPath id="SvgjsClipPath1451"><rect width="1000" height="1000" x="0" y="0" rx="500" ry="500"></rect></clipPath></defs></svg>