<?xml version="1.0" standalone="no"?>
<svg viewBox="0 0 200 200" xmlns="http://www.w3.org/2000/svg">
  <path fill="#000000" d="M19.2,-27.5C21.8,-28.1,18.8,-17.7,26.2,-9.6C33.7,-1.5,51.6,4.3,50.1,6.5C48.6,8.7,27.8,7.3,18,11.8C8.2,16.2,9.5,26.3,7.1,29.4C4.8,32.4,-1.1,28.2,-3.9,23C-6.7,17.7,-6.2,11.4,-16.1,9C-25.9,6.5,-46,8,-52,4C-58,0,-49.9,-9.6,-43.8,-18.7C-37.6,-27.7,-33.2,-36.4,-26.3,-33.8C-19.3,-31.2,-9.6,-17.3,-0.7,-16.3C8.3,-15.2,16.5,-26.9,19.2,-27.5Z" transform="translate(100 100)" />
</svg>
